<?xml version="1.0" encoding="UTF-8" standalone="no"?>
<!DOCTYPE svg PUBLIC "-//W3C//DTD SVG 20010904//EN" "http://www.w3.org/TR/2001/REC-SVG-20010904/DTD/svg10.dtd">
<svg version="1.0" xmlns="http://www.w3.org/2000/svg" width="512.000000pt" height="512.000000pt" viewBox="0 0 512.000000 512.000000" preserveAspectRatio="xMidYMid meet">
<metadata>
Created by potrace 1.11, written by Peter Selinger 2001-2013
</metadata>
<g transform="translate(0.000000,512.000000) scale(0.100000,-0.100000)" fill="#000000" stroke="none">
<path d="M2418 4992 c-24 -27 -68 -101 -66 -109 1 -5 -5 -22 -15 -39 -9 -17 -14 -34 -11 -36 2 -3 -2 -21 -10 -40 -9 -19 -13 -47 -10 -61 3 -21 0 -25 -16 -24 -11 1 -20 2 -20 3 0 2 5 15 10 29 8 20 7 26 -2 23 -6 -2 -12 -11 -14 -19 -1 -7 -5 -31 -9 -51 -5 -26 -4 -38 4 -38 19 0 12 -18 -9 -25 -11 -3 -20 -14 -20 -24 0 -10 -9 -26 -20 -36 -11 -10 -20 -24 -20 -31 0 -23 -34 -71 -47 -67 -7 3 -13 0 -13 -6 0 -6 5 -11 11 -11 6 0 -3 -16 -20 -35 -17 -20 -42 -57 -55 -83 -14 -27 -32 -54 -40 -61 -9 -8 -16 -21 -16 -30 -1 -21 -39 -72 -40 -51 0 13 -123 117 -153 130 -7 3 -30 17 -52 31 -68 43 -73 43 -132 -2 -29 -23 -66 -60 -82 -83 -15 -23 -54 -77 -85 -121 -70 -97 -107 -173 -137 -282 -13 -46 -26 -83 -30 -83 -3 0 -12 6 -18 14 -9 11 -9 15 1 19 18 6 -58 37 -108 44 -29 4 -45 1 -56 -11 -9 -9 -23 -16 -31 -16 -16 0 -67 -55 -67 -71 0 -6 -4 -8 -9 -5 -4 3 -19 -15 -31 -40 -15 -28 -26 -40 -31 -33 -18 29 52 132 115 170 37 22 18 26 -23 4 -74 -38 -238 -264 -227 -311 7 -28 -4 -75 -38 -166 -32 -86 -92 -391 -95 -483 -1 -38 -6 -73 -10 -77 -4 -5 -41 25 -83 66 l-76 74 -8 -97 c-9 -122 3 -475 16 -479 6 -2 10 -21 10 -42 0 -21 7 -69 16 -107 8 -37 14 -90 11 -118 -4 -49 17 -200 33 -240 5 -11 12 -47 15 -80 4 -33 9 -75 11 -94 5 -37 55 -219 110 -401 20 -63 43 -139 52 -169 9 -29 21 -55 28 -58 7 -2 35 -50 62 -106 28 -56 71 -127 97 -157 25 -30 78 -93 118 -140 39 -46 72 -91 74 -99 2 -16 45 -53 52 -46 2 3 -2 12 -10 22 -8 10 24 -16 71 -58 140 -125 259 -196 431 -257 151 -53 261 -72 577 -98 34 -3 60 -10 57 -15 -4 -5 -2 -9 3 -9 18 0 187 31 226 41 35 10 38 13 34 41 -5 28 -3 30 25 24 152 -30 472 -28 452 3 -2 5 18 11 46 15 269 36 560 182 773 388 42 40 82 72 89 70 8 -2 20 5 28 14 12 16 12 17 -3 11 -27 -10 -22 2 15 37 58 55 137 153 151 188 8 19 21 40 29 46 17 14 117 205 117 222 0 7 18 50 39 95 21 46 37 85 35 88 -2 2 5 12 16 22 14 13 20 30 19 59 l-1 41 -12 -35 c-11 -30 -13 -32 -18 -13 -3 12 7 66 23 122 37 133 93 408 105 521 2 19 8 62 14 95 20 123 31 237 25 258 -5 16 -4 18 3 8 8 -11 11 -10 15 5 3 10 3 2 0 -19 -3 -21 -5 -66 -5 -100 0 -34 -7 -86 -15 -116 -8 -30 -13 -70 -12 -90 4 -44 -7 -124 -27 -209 -13 -53 -13 -65 -1 -82 13 -18 15 -13 30 64 9 46 14 98 11 115 -4 18 -2 31 3 31 5 0 16 33 22 72 7 40 17 87 22 103 4 17 11 69 14 118 3 48 10 110 15 138 6 31 6 57 1 67 -6 10 -7 92 -4 193 4 127 3 178 -6 183 -14 9 -15 126 -1 126 12 0 14 57 2 64 -4 2 -46 -49 -94 -114 -47 -66 -88 -117 -91 -114 -2 3 -21 -19 -40 -49 -20 -29 -43 -59 -51 -66 -14 -12 -16 -10 -16 13 0 14 -6 26 -13 26 -15 0 -37 67 -37 114 0 19 -7 68 -15 108 -17 79 -98 355 -113 385 -6 10 -22 43 -38 73 -15 30 -42 78 -59 105 -17 28 -34 58 -38 68 -3 9 -11 17 -16 17 -5 0 -20 17 -32 37 -42 67 -79 103 -108 103 -29 0 -175 -83 -164 -93 3 -4 -1 -7 -9 -7 -9 0 -18 -7 -22 -15 -12 -31 -24 -13 -36 52 -12 74 -25 103 -43 103 -16 1 -40 36 -60 91 -17 45 -142 241 -189 298 -35 41 -137 121 -155 121 -19 0 -83 -39 -169 -104 l-64 -49 -20 23 c-11 13 -31 47 -45 77 -14 29 -29 53 -34 53 -5 0 -12 11 -15 25 -4 14 -11 25 -17 25 -6 0 -8 4 -4 10 3 5 -3 18 -15 30 -11 11 -20 26 -20 34 0 23 -114 185 -134 190 -12 3 -17 10 -12 21 4 11 -14 48 -50 103 -55 85 -114 160 -114 145 0 -4 -11 7 -24 25 -22 30 -24 31 -38 14z m87 -107 c31 -47 61 -85 66 -85 5 0 9 -7 9 -16 0 -22 -44 24 -100 104 -49 70 -42 70 -93 1 l-19 -24 15 25 c8 14 22 40 31 58 9 18 21 30 25 28 5 -3 34 -44 66 -91z m-35 -264 c0 -10 7 -24 15 -31 8 -7 12 -16 9 -21 -2 -5 4 -16 16 -26 11 -10 20 -23 20 -30 0 -7 9 -21 21 -31 11 -9 25 -27 30 -39 5 -13 15 -23 23 -23 20 0 29 -30 11 -36 -13 -5 -12 -10 4 -33 10 -14 19 -30 19 -36 0 -5 6 -12 14 -15 7 -3 14 -14 16 -25 4 -29 7 -37 20 -62 7 -13 10 -23 7 -23 -3 0 6 -18 20 -40 14 -22 25 -47 25 -55 0 -9 13 -28 30 -43 l29 -27 -41 -70 c-23 -38 -50 -99 -60 -135 -38 -138 -42 -150 -49 -150 -4 0 -12 13 -19 29 -6 16 -18 32 -25 35 -8 3 -36 38 -63 78 -63 93 -87 115 -106 99 -8 -7 -43 -57 -77 -112 -35 -55 -66 -102 -70 -105 -4 -2 -10 12 -13 32 -4 19 -15 38 -24 41 -24 9 -38 29 -72 101 -16 34 -42 82 -58 105 -28 41 -28 62 -2 87 3 3 22 41 43 85 21 44 42 88 47 97 6 11 5 18 -3 21 -7 3 -5 6 5 6 16 1 47 41 32 41 -4 0 2 10 13 23 26 27 84 142 93 182 4 17 11 29 17 28 6 -1 26 20 44 47 35 52 59 64 59 31z m740 -419 c0 -15 46 -53 55 -45 4 5 5 3 1 -4 -4 -7 0 -26 9 -42 8 -17 15 -42 15 -56 0 -14 6 -28 14 -31 8 -3 17 -16 20 -29 4 -14 17 -41 31 -61 17 -24 23 -45 20 -63 -3 -14 -2 -20 1 -13 9 20 24 3 24 -28 0 -16 9 -66 19 -112 31 -135 35 -178 16 -178 -12 0 -14 -4 -6 -19 9 -16 1 -29 -50 -82 -33 -35 -72 -84 -86 -109 -15 -25 -44 -71 -66 -104 -22 -32 -61 -100 -88 -152 l-48 -93 -64 107 c-35 59 -76 130 -92 157 -15 28 -41 65 -57 83 -15 18 -28 39 -28 47 0 7 -6 20 -13 27 -37 37 -79 110 -69 120 8 8 7 17 -3 32 -11 18 -11 29 1 71 8 28 17 59 19 70 2 11 13 40 25 63 12 24 19 46 17 48 -8 8 65 84 74 78 5 -3 14 8 21 23 6 15 21 38 32 51 13 14 15 22 7 22 -20 0 7 30 37 41 17 7 23 15 20 33 -2 18 12 39 54 82 81 85 109 104 125 88 7 -7 13 -17 13 -22z m-1422 -4 c12 -6 22 -19 22 -29 0 -9 11 -24 25 -33 14 -9 25 -21 25 -27 0 -6 14 -24 30 -41 38 -37 70 -99 70 -133 0 -14 6 -28 14 -31 8 -3 17 -17 21 -32 4 -15 13 -34 20 -42 19 -21 37 -70 25 -70 -5 0 -7 -7 -3 -16 4 -12 8 -13 14 -3 5 9 9 6 12 -12 48 -253 58 -337 37 -324 -5 3 -10 2 -10 -4 0 -5 4 -12 9 -16 7 -4 -202 -371 -223 -392 -7 -7 -76 169 -76 193 0 14 -7 27 -15 31 -9 3 -25 24 -37 47 -11 22 -33 55 -48 71 -60 65 -98 112 -123 152 -14 22 -59 74 -99 113 -40 40 -72 77 -70 83 2 6 9 33 17 61 7 28 17 60 21 70 6 15 4 17 -6 11 -9 -5 -11 -4 -6 4 4 6 11 9 16 6 11 -7 23 31 15 45 -3 6 0 13 8 16 9 3 21 20 28 37 7 18 26 55 42 82 17 28 33 61 37 75 3 14 11 25 16 25 5 0 33 24 62 53 56 55 71 58 130 30z m1530 -119 c-1 -33 -6 -33 -13 0 -2 11 -7 26 -10 31 -3 5 0 7 9 4 9 -3 14 -18 14 -35z m302 -409 c0 -16 -18 -40 -31 -40 -4 0 -10 21 -14 46 -3 26 -9 54 -12 63 -3 9 9 0 26 -19 17 -19 31 -42 31 -50z m-1202 20 c-13 -22 -33 -53 -46 -68 -14 -16 -10 -5 10 28 19 30 38 61 42 68 4 6 9 12 12 12 2 0 -6 -18 -18 -40z m67 3 c11 -14 27 -34 36 -42 10 -9 24 -32 33 -51 8 -19 21 -44 28 -55 105 -167 154 -258 183 -338 9 -26 25 -53 34 -60 10 -6 35 -44 54 -84 20 -39 41 -74 46 -77 16 -10 96 -160 93 -173 -4 -18 17 -53 29 -50 6 1 34 -52 63 -118 29 -66 83 -185 118 -265 72 -159 151 -386 119 -340 -17 24 -14 -6 4 -40 41 -79 43 -74 -55 -146 -49 -36 -99 -77 -110 -91 -11 -14 -52 -49 -91 -79 -66 -49 -152 -131 -153 -146 -1 -3 -18 -25 -38 -47 -20 -23 -38 -45 -38 -49 -1 -4 -8 -14 -16 -24 -14 -14 -14 -17 1 -20 10 -2 -3 -17 -42 -46 -32 -24 -42 -30 -23 -13 19 17 28 31 21 31 -22 0 -82 -52 -96 -84 -17 -39 -70 -96 -89 -96 -7 0 -20 -14 -28 -30 l-15 -31 -44 57 c-51 66 -198 204 -217 204 -8 0 -48 32 -90 70 -42 39 -78 66 -82 61 -8 -14 -31 2 -34 23 -3 19 -101 103 -131 112 -11 3 -45 30 -75 59 -30 29 -89 77 -130 107 -131 93 -150 111 -150 140 0 15 4 29 9 33 6 3 9 24 9 46 0 23 5 45 11 49 7 4 23 50 36 103 13 53 42 134 64 181 22 48 39 94 39 104 -1 9 13 40 30 68 19 31 30 58 26 68 -4 10 -1 16 7 16 14 1 59 84 59 109 0 8 11 29 25 47 14 18 53 86 86 151 34 65 81 153 106 195 24 43 49 93 54 111 5 18 22 46 37 63 16 16 34 39 41 52 8 15 18 21 27 18 11 -4 14 -1 9 13 -4 13 17 54 68 132 78 119 112 179 102 179 -4 0 -3 5 0 10 10 16 19 12 40 -17z m1355 2 c0 -2 -10 -9 -22 -15 -22 -11 -22 -10 -4 4 21 17 26 19 26 11z m-2687 -23 c18 -9 39 -23 47 -30 8 -7 27 -21 43 -33 15 -11 27 -27 27 -35 0 -8 8 -14 18 -14 19 0 162 -134 162 -151 0 -5 9 -9 20 -9 13 0 20 -7 20 -18 0 -10 16 -33 35 -52 19 -19 35 -39 35 -46 0 -7 14 -24 32 -37 17 -14 36 -40 43 -59 6 -18 16 -32 23 -31 11 3 27 -19 32 -42 10 -41 33 -99 46 -115 7 -9 23 -41 35 -73 12 -31 25 -57 30 -57 4 0 -4 -25 -18 -55 -13 -31 -26 -61 -27 -68 -1 -7 -25 -66 -55 -132 -29 -66 -68 -154 -86 -195 -19 -41 -36 -89 -39 -107 -3 -18 -21 -74 -40 -125 -39 -104 -54 -163 -37 -138 12 17 15 1 3 -17 -5 -9 -37 11 -102 63 -52 42 -107 82 -121 89 -38 20 -110 83 -99 87 5 2 -21 29 -58 60 -37 32 -123 113 -191 182 l-124 124 1 118 c0 139 35 319 108 559 33 106 173 375 197 375 4 0 22 -8 40 -18z m2738 -32 c16 -16 29 -37 29 -45 0 -8 5 -15 10 -15 6 0 10 -8 10 -18 0 -10 6 -26 13 -37 21 -30 47 -115 47 -151 0 -18 6 -39 14 -46 7 -8 18 -34 24 -59 6 -24 17 -62 25 -84 23 -63 29 -98 17 -90 -5 3 -10 -1 -10 -10 0 -9 6 -15 13 -12 9 3 14 -39 22 -172 12 -211 9 -302 -10 -295 -10 4 -11 -4 -5 -35 5 -30 4 -44 -6 -52 -8 -6 -14 -17 -14 -23 0 -6 -12 -19 -27 -29 -60 -37 -69 -47 -53 -58 12 -8 11 -9 -6 -7 -24 3 -94 -46 -94 -66 0 -8 -15 -20 -32 -27 -18 -7 -53 -32 -78 -55 -25 -22 -85 -73 -134 -113 l-89 -73 -24 81 c-18 65 -57 171 -110 299 -3 6 -13 12 -22 12 -20 1 -64 71 -144 235 -94 190 -94 192 -68 216 11 11 21 27 21 35 0 19 36 90 66 131 13 17 24 38 24 46 0 9 3 17 8 19 10 4 92 109 92 118 0 4 48 57 106 116 58 60 117 124 131 142 14 18 28 31 30 28 2 -2 46 25 96 60 51 35 94 63 96 64 2 0 17 -13 32 -30z m-1654 -6 c3 -8 1 -20 -4 -25 -7 -7 -12 -2 -15 15 -6 28 9 36 19 10z m1820 -346 c-3 -8 -6 -5 -6 6 -1 11 2 17 5 13 3 -3 4 -12 1 -19z m-1280 -24 c1 -18 -2 -23 -9 -16 -6 6 -8 18 -5 26 9 22 12 20 14 -10z m-1037 -24 c6 -11 8 -20 6 -20 -3 0 -10 9 -16 20 -6 11 -8 20 -6 20 3 0 10 -9 16 -20z m52 -105 c6 -28 -6 -34 -16 -9 -5 14 0 34 8 34 2 0 6 -11 8 -25z m1063 -15 c9 -16 13 -30 11 -30 -3 0 -12 14 -21 30 -9 17 -13 30 -11 30 3 0 12 -13 21 -30z m1735 -213 c-10 -27 -10 -54 -1 -124 15 -120 15 -186 -1 -180 -8 3 -12 18 -10 43 2 21 1 85 -3 141 l-7 103 -28 -15 c-15 -8 -33 -28 -38 -45 -6 -16 -17 -30 -24 -30 -7 0 -24 -18 -38 -40 -13 -22 -28 -40 -32 -40 -5 0 -22 -15 -38 -32 -20 -22 -30 -28 -30 -17 0 8 14 28 31 45 17 16 72 78 122 137 91 109 123 127 97 54z m-4063 -59 c-3 -8 -6 -5 -6 6 -1 11 2 17 5 13 3 -3 4 -12 1 -19z m78 -28 c10 -11 16 -20 13 -20 -3 0 -13 9 -23 20 -10 11 -16 20 -13 20 3 0 13 -9 23 -20z m3878 -262 c-2 -169 -13 -318 -23 -318 -10 0 -23 67 -15 80 12 19 17 303 6 295 -6 -3 -11 -13 -11 -21 0 -8 -4 -12 -10 -9 -5 3 -23 -14 -40 -37 -17 -24 -40 -46 -51 -50 -10 -4 -19 -6 -19 -5 0 2 34 39 75 82 41 43 72 81 70 83 -4 4 13 32 19 32 0 0 0 -60 -1 -132z m-3793 -11 c0 -11 -7 -25 -15 -31 -12 -9 -8 -11 23 -11 34 0 48 -9 118 -72 286 -258 936 -795 1095 -903 99 -68 181 -130 207 -157 13 -13 58 -48 100 -77 88 -62 231 -205 233 -232 1 -11 1 -27 0 -36 -1 -9 5 -18 13 -20 11 -2 7 -24 -22 -113 -35 -108 -36 -112 -36 -282 -1 -94 -4 -169 -8 -166 -13 7 -9 -13 11 -58 11 -24 17 -47 14 -53 -7 -11 -221 -2 -338 15 -103 14 -280 60 -375 98 -42 17 -77 25 -81 20 -9 -15 -147 50 -213 100 -270 204 -507 558 -591 880 -9 36 -25 82 -36 103 -10 20 -21 57 -24 80 -3 24 -10 54 -15 68 -25 63 -89 399 -90 470 0 25 -5 63 -11 85 -6 22 -14 115 -18 207 l-6 167 33 -31 c17 -18 32 -41 32 -51z m3589 37 c-15 -18 -22 -13 -13 10 3 9 10 13 16 10 5 -3 4 -12 -3 -20z m-3564 -44 c3 -5 1 -10 -4 -10 -6 0 -11 5 -11 10 0 6 2 10 4 10 3 0 8 -4 11 -10z m3585 -73 c0 -2 -12 -14 -27 -28 l-28 -24 24 28 c23 25 31 32 31 24z m96 -24 c1 -16 -3 -71 -9 -123 -5 -52 -11 -115 -12 -140 -2 -25 -7 -63 -11 -84 -5 -29 -4 -37 4 -32 7 4 12 3 12 -3 0 -5 -7 -14 -17 -19 -11 -7 -17 -25 -18 -58 -1 -27 -8 -62 -15 -79 -6 -16 -16 -54 -20 -83 -5 -29 -23 -105 -40 -168 -17 -64 -30 -124 -29 -133 3 -24 -12 -72 -21 -66 -4 3 -13 -10 -20 -28 -8 -17 -35 -80 -61 -138 -27 -59 -50 -119 -53 -134 -3 -15 -28 -66 -56 -112 -27 -47 -50 -91 -50 -98 0 -8 -4 -17 -10 -20 -5 -3 -10 -15 -10 -26 0 -11 -10 -39 -22 -62 -12 -23 -22 -45 -23 -49 0 -3 -3 -10 -7 -14 -16 -15 -7 -25 15 -19 17 6 12 -3 -23 -39 -24 -25 -46 -46 -49 -46 -2 0 6 11 19 25 13 14 19 25 14 25 -14 0 -86 -75 -78 -82 9 -10 -76 -87 -90 -82 -8 3 -23 -6 -34 -20 -12 -15 -30 -26 -44 -26 -14 0 -33 -9 -44 -21 -59 -66 -184 -126 -350 -168 -106 -27 -230 -39 -219 -22 9 16 -29 9 -115 -20 -62 -21 -109 -23 -195 -9 -49 8 -64 15 -83 39 -20 25 -27 28 -48 21 -27 -11 -36 3 -50 75 -3 20 -16 45 -28 56 -20 19 -21 30 -21 167 0 127 3 158 24 224 13 43 28 78 32 78 5 0 9 7 9 15 0 27 30 75 46 75 9 0 14 7 12 18 -4 26 42 89 120 164 78 75 119 104 143 100 10 -2 20 2 24 8 3 5 1 10 -6 10 -7 0 -5 8 6 20 10 11 23 20 28 20 15 0 138 79 172 110 17 15 42 34 56 41 37 20 117 78 164 120 55 50 159 119 178 119 9 0 25 14 37 30 12 17 37 37 57 45 35 15 72 51 73 71 0 5 18 18 39 27 21 10 41 26 44 37 6 25 2 22 -85 -47 -38 -30 -68 -48 -68 -41 1 7 36 40 78 73 42 33 145 117 229 188 84 70 156 127 159 127 3 0 36 27 72 61 37 34 76 65 87 71 11 5 3 -6 -17 -26 -21 -19 -38 -40 -38 -47 0 -7 -2 -10 -5 -7 -3 3 -21 -9 -39 -26 -18 -17 -48 -40 -67 -51 -19 -11 -34 -27 -34 -35 0 -8 -11 -20 -23 -26 -13 -7 -40 -27 -60 -47 -21 -19 -55 -46 -76 -60 -23 -15 -40 -35 -41 -47 -2 -27 1 -26 54 18 25 20 49 37 53 37 5 0 19 18 33 40 13 22 25 34 25 27 0 -7 34 12 75 43 41 30 78 55 82 55 3 0 25 20 48 43 23 24 67 63 98 87 31 23 58 46 58 51 1 5 2 12 3 17 7 40 51 44 52 5z m-935 -255 c7 -18 23 -46 35 -63 32 -44 38 -71 20 -97 -12 -16 -17 -18 -21 -7 -10 27 -65 193 -65 196 0 2 4 3 9 3 5 0 14 -15 22 -32z m-2804 -190 c-3 -7 -5 -2 -5 12 0 14 2 19 5 13 2 -7 2 -19 0 -25z m10 -60 c-3 -8 -6 -5 -6 6 -1 11 2 17 5 13 3 -3 4 -12 1 -19z m2678 -78 c-7 -11 -45 -33 -45 -26 0 2 7 12 16 20 17 18 39 22 29 6z m235 0 c0 -5 -15 -17 -32 -25 l-33 -16 28 25 c31 28 37 31 37 16z m-290 -50 c0 -5 -21 -24 -47 -41 -27 -18 -86 -62 -133 -97 -116 -88 -124 -92 -60 -32 76 71 214 178 233 179 4 1 7 -3 7 -9z m195 -17 c-16 -14 -50 -43 -73 -64 -24 -22 -58 -47 -75 -55 -41 -21 -39 -19 73 70 93 73 135 101 75 49z m45 13 c0 -2 -8 -10 -17 -17 -16 -13 -17 -12 -4 4 13 16 21 21 21 13z m-575 -256 c-3 -5 -12 -10 -18 -10 -7 0 -6 4 3 10 19 12 23 12 15 0z m1425 -137 c-11 -17 -11 -17 -6 0 3 10 6 24 7 30 0 9 2 9 5 0 3 -7 0 -20 -6 -30z m-34 -120 c-9 -27 -25 -59 -36 -73 -15 -19 -12 -5 13 57 34 86 50 98 23 16z m-3572 -31 c17 -45 23 -120 7 -92 -5 8 -14 41 -21 72 -6 32 -16 60 -21 63 -5 4 -9 11 -9 18 0 20 26 -16 44 -61z m3414 32 c-7 -15 -14 -21 -16 -15 -5 16 5 41 17 41 7 0 6 -10 -1 -26z m-44 -118 c-38 -71 -135 -236 -138 -236 -2 0 33 73 77 163 51 101 83 155 85 143 2 -10 -8 -41 -24 -70z m-3260 -202 c3 -8 2 -12 -4 -9 -6 3 -10 10 -10 16 0 14 7 11 14 -7z m26 -44 c6 -11 8 -20 6 -20 -3 0 -10 9 -16 20 -6 11 -8 20 -6 20 3 0 10 -9 16 -20z m1315 -619 c218 7 220 7 237 -14 l17 -22 -102 -9 c-106 -9 -305 3 -427 26 -51 9 -60 13 -40 18 14 3 41 3 60 0 19 -4 134 -3 255 1z"/>
<path d="M1620 3442 c0 -12 19 -26 26 -19 2 2 -2 10 -11 17 -9 8 -15 8 -15 2z"/>
<path d="M2799 1453 c-36 -43 -40 -55 -9 -26 19 18 32 35 29 38 -3 3 -12 -3 -20 -12z"/>
<path d="M2664 1359 c-23 -8 -80 -76 -72 -85 3 -3 18 8 34 24 16 15 37 33 48 39 25 14 17 33 -10 22z"/>
<path d="M3872 798 c-5 -7 -13 -24 -17 -37 -10 -32 9 -19 29 19 14 30 7 41 -12 18z"/>
<path d="M3732 673 c-24 -33 -24 -61 1 -32 6 9 24 23 40 32 32 21 35 36 6 34 -12 -1 -33 -16 -47 -34z"/>
<path d="M2218 4669 c-10 -6 -18 -22 -18 -36 l0 -26 21 27 c24 31 22 49 -3 35z"/>
<path d="M4462 1657 c-12 -50 -22 -103 -22 -117 l1 -25 17 21 c13 15 18 36 16 70 -1 28 5 58 12 69 15 21 19 75 7 75 -5 0 -18 -42 -31 -93z"/>
</g>
</svg>